<?xml version="1.0" encoding="utf-8"?>
<!-- Generator: Adobe Illustrator 22.0.1, SVG Export Plug-In . SVG Version: 6.00 Build 0)  -->
<svg version="1.1" id="Layer_1" xmlns="http://www.w3.org/2000/svg" xmlns:xlink="http://www.w3.org/1999/xlink" x="0px" y="0px"
	 viewBox="0 0 173.5 89.2" style="enable-background:new 0 0 173.5 89.2;" xml:space="preserve">
<style type="text/css">
	.st0{fill:#FFFFFF;}
	.st1{fill:#F34E4E;}
</style>
<g>
	<g>
		<g>
			<polygon class="st0" points="138.6,35.6 128.6,15.2 116.9,17 115.9,63.1 127.1,61.3 127.7,35.3 134.2,49.8 142.4,48.5 149.7,32 
				149.1,57.9 160.4,56.2 161.3,10.1 149.6,11.9 			"/>
			<polygon class="st0" points="12.6,33.1 11.7,79.1 40,74.8 40.3,64.8 23.1,67.4 23.8,31.4 			"/>
			<polygon class="st0" points="62.1,71.4 62.8,35.3 78.2,32.9 78.4,22.9 36.4,29.4 36.2,39.4 51.6,37 50.8,73.1 			"/>
			<polygon class="st0" points="83.5,22.1 82.5,68.2 110.9,63.8 111.2,53.8 94,56.5 94.7,20.4 			"/>
		</g>
		<path class="st1" d="M0.2,26.8V89l172.7-26.2V0.2L0.2,26.8z M40.3,64.8l-0.2,10l-28.4,4.4l1-46.1l11.2-1.7l-0.7,36.1L40.3,64.8z
			 M36.2,39.4l0.2-10l42-6.5l-0.2,10l-15.3,2.4l-0.7,36.1l-11.3,1.7L51.6,37L36.2,39.4z M111.2,53.8l-0.2,10l-28.4,4.4l1-46.1
			l11.2-1.7L94,56.5L111.2,53.8z M160.4,56.2l-11.3,1.7l0.6-26l-7.3,16.5l-8.2,1.3l-6.6-14.4l-0.6,26l-11.2,1.7l1-46.1l11.7-1.8
			l10,20.5l11-23.7l11.8-1.8L160.4,56.2z"/>
	</g>
</g>
</svg>
