<svg xmlns="http://www.w3.org/2000/svg" viewBox="0 0 23.75 13.35"><defs><style>.cls-1{fill:#fff;}</style></defs><title>Asset 1</title><g id="Layer_2" data-name="Layer 2"><g id="Layer_1-2" data-name="Layer 1"><path class="cls-1" d="M11.87,13.35a1.51,1.51,0,0,1-1-.43,1.49,1.49,0,0,1,0-2.09L21.23.43a1.49,1.49,0,0,1,2.09,0,1.49,1.49,0,0,1,0,2.09l-10.4,10.4A1.52,1.52,0,0,1,11.87,13.35Z"/><path class="cls-1" d="M11.87,13.35a1.51,1.51,0,0,1-1-.43L.43,2.52A1.49,1.49,0,0,1,.43.43a1.49,1.49,0,0,1,2.09,0l10.4,10.4a1.49,1.49,0,0,1,0,2.09A1.52,1.52,0,0,1,11.87,13.35Z"/></g></g></svg>